<svg width="64" height="24" viewBox="0 0 64 24" fill="none" xmlns="http://www.w3.org/2000/svg">
<g clip-path="url(#clip0)">
<path d="M13.4145 15.9312C13.1197 15.2331 12.692 14.5989 12.1551 14.0641C11.6198 13.5277 10.9858 13.1 10.2879 12.8047C10.2817 12.8016 10.2754 12.8 10.2692 12.7969C11.2426 12.0938 11.8754 10.9484 11.8754 9.65625C11.8754 7.51562 10.141 5.78125 8.00041 5.78125C5.85978 5.78125 4.12541 7.51562 4.12541 9.65625C4.12541 10.9484 4.75822 12.0937 5.73166 12.7984C5.72541 12.8016 5.71916 12.8031 5.71291 12.8062C5.01291 13.1016 4.38478 13.525 3.84572 14.0656C3.30933 14.6009 2.88166 15.235 2.58634 15.9328C2.29622 16.616 2.13975 17.3485 2.12541 18.0906C2.12499 18.1073 2.12791 18.1239 2.13401 18.1394C2.1401 18.1549 2.14924 18.1691 2.16089 18.181C2.17254 18.193 2.18646 18.2025 2.20184 18.2089C2.21721 18.2154 2.23372 18.2188 2.25041 18.2188H3.18791C3.25666 18.2188 3.31134 18.1641 3.31291 18.0969C3.34416 16.8906 3.82853 15.7609 4.68478 14.9047C5.57072 14.0188 6.74728 13.5312 8.00041 13.5312C9.25353 13.5312 10.4301 14.0188 11.316 14.9047C12.1723 15.7609 12.6567 16.8906 12.6879 18.0969C12.6895 18.1656 12.7442 18.2188 12.8129 18.2188H13.7504C13.7671 18.2188 13.7836 18.2154 13.799 18.2089C13.8143 18.2025 13.8283 18.193 13.8399 18.181C13.8516 18.1691 13.8607 18.1549 13.8668 18.1394C13.8729 18.1239 13.8758 18.1073 13.8754 18.0906C13.8598 17.3437 13.7051 16.6172 13.4145 15.9312V15.9312ZM8.00041 12.3438C7.28322 12.3438 6.60822 12.0641 6.10041 11.5563C5.59259 11.0484 5.31291 10.3734 5.31291 9.65625C5.31291 8.93906 5.59259 8.26406 6.10041 7.75625C6.60822 7.24844 7.28322 6.96875 8.00041 6.96875C8.71759 6.96875 9.39259 7.24844 9.90041 7.75625C10.4082 8.26406 10.6879 8.93906 10.6879 9.65625C10.6879 10.3734 10.4082 11.0484 9.90041 11.5563C9.39259 12.0641 8.71759 12.3438 8.00041 12.3438Z" fill="white"/>
<path d="M25.875 18H21.6172V6.72656H25.8906C26.8542 6.72656 27.6328 6.98438 28.2266 7.5C28.8255 8.01562 29.125 8.69531 29.125 9.53906C29.125 10.1276 28.9349 10.6615 28.5547 11.1406C28.1797 11.6146 27.7214 11.901 27.1797 12V12.0625C27.9453 12.1615 28.5547 12.4609 29.0078 12.9609C29.4661 13.4609 29.6953 14.0859 29.6953 14.8359C29.6953 15.8307 29.3568 16.6068 28.6797 17.1641C28.0078 17.7214 27.0729 18 25.875 18ZM23.0234 7.96875V11.5859H25.1328C25.9661 11.5859 26.6016 11.4245 27.0391 11.1016C27.4818 10.7786 27.7031 10.3125 27.7031 9.70312C27.7031 9.14583 27.5182 8.71875 27.1484 8.42188C26.7786 8.11979 26.2526 7.96875 25.5703 7.96875H23.0234ZM23.0234 16.7578H25.6641C26.513 16.7578 27.1562 16.5885 27.5938 16.25C28.0312 15.9115 28.25 15.4167 28.25 14.7656C28.25 13.4531 27.3438 12.7969 25.5312 12.7969H23.0234V16.7578ZM34.6016 18.1406C33.4661 18.1406 32.5547 17.763 31.8672 17.0078C31.1797 16.2474 30.8359 15.224 30.8359 13.9375C30.8359 12.651 31.1797 11.6302 31.8672 10.875C32.5547 10.1146 33.4661 9.73438 34.6016 9.73438C35.7318 9.73438 36.6406 10.1146 37.3281 10.875C38.0156 11.6302 38.3594 12.651 38.3594 13.9375C38.3594 15.2188 38.0156 16.2396 37.3281 17C36.6406 17.7604 35.7318 18.1406 34.6016 18.1406ZM32.8594 16.1484C33.2917 16.6797 33.8724 16.9453 34.6016 16.9453C35.3307 16.9453 35.9089 16.6823 36.3359 16.1562C36.763 15.625 36.9766 14.8854 36.9766 13.9375C36.9766 12.9896 36.763 12.2526 36.3359 11.7266C35.9089 11.1953 35.3307 10.9297 34.6016 10.9297C33.8724 10.9297 33.2917 11.1953 32.8594 11.7266C32.4323 12.2578 32.2188 12.9948 32.2188 13.9375C32.2188 14.8802 32.4323 15.6172 32.8594 16.1484ZM41.2109 18H39.8672V9.875H41.2109V15.9219H41.2734L45.3359 9.875H46.6797V18H45.3359V11.9531H45.2734L41.2109 18ZM40.9062 6.35938H41.9062C41.9062 6.82292 42.0443 7.20833 42.3203 7.51562C42.6016 7.82292 42.9688 7.97656 43.4219 7.97656C43.875 7.97656 44.2396 7.82292 44.5156 7.51562C44.7969 7.20833 44.9375 6.82292 44.9375 6.35938H45.9375C45.9375 7.07812 45.7031 7.66146 45.2344 8.10938C44.7708 8.55729 44.1667 8.78125 43.4219 8.78125C42.6771 8.78125 42.0703 8.55729 41.6016 8.10938C41.138 7.66146 40.9062 7.07812 40.9062 6.35938ZM54.5312 9.875V10.9922H51.9062V18H50.5625V10.9922H47.9375V9.875H54.5312ZM57.1328 18H55.7891V9.875H57.1328V15.9219H57.1953L61.2578 9.875H62.6016V18H61.2578V11.9531H61.1953L57.1328 18Z" fill="white"/>
</g>
<defs>
<clipPath id="clip0">
<rect width="64" height="24" fill="white"/>
</clipPath>
</defs>
</svg>
